<svg id="Layer_3" enable-background="new 0 0 64 64" height="512" viewBox="0 0 64 64" width="512" xmlns="http://www.w3.org/2000/svg"><g><path d="m59 29c-.841 0-1.598.348-2.143.905l-6.055-.505c-.461-3.363-1.797-6.44-3.778-9.002l4.976-6.398c1.105 0 2-.895 2-2s-.895-2-2-2-2 .895-2 2l-6.398 4.977c-2.562-1.981-5.639-3.317-9.002-3.778l-.505-6.055c.557-.546.905-1.303.905-2.144 0-1.657-1.343-3-3-3s-3 1.343-3 3c0 .841.348 1.598.905 2.143l-.505 6.055c-3.363.461-6.44 1.797-9.002 3.778l-6.398-4.976c0-1.105-.895-2-2-2s-2 .895-2 2 .895 2 2 2l4.977 6.398c-1.981 2.562-3.317 5.639-3.778 9.002l-6.055.505c-.546-.557-1.303-.905-2.144-.905-1.657 0-3 1.343-3 3s1.343 3 3 3c.841 0 1.598-.348 2.143-.905l6.055.505c.461 3.363 1.797 6.44 3.778 9.002l-4.976 6.398c-1.105 0-2 .895-2 2s.895 2 2 2 2-.895 2-2l6.398-4.977c2.562 1.981 5.639 3.317 9.002 3.778l.505 6.055c-.557.546-.905 1.303-.905 2.144 0 1.657 1.343 3 3 3s3-1.343 3-3c0-.841-.348-1.598-.905-2.143l.505-6.055c3.363-.461 6.44-1.797 9.002-3.778l6.398 4.976c0 1.105.895 2 2 2s2-.895 2-2-.895-2-2-2l-4.977-6.398c1.981-2.562 3.317-5.639 3.778-9.002l6.055-.505c.546.557 1.303.905 2.144.905 1.657 0 3-1.343 3-3s-1.343-3-3-3z" fill="#3b5892"/><g fill="#4c6cb5"><circle cx="22" cy="31" r="3"/><circle cx="36" cy="41" r="4"/><circle cx="37" cy="24" r="2"/></g><g><path d="m59 28c-.917 0-1.785.307-2.49.873l-4.843-.404c-.52-2.899-1.679-5.657-3.388-8.056l4.245-5.458c1.406-.25 2.476-1.48 2.476-2.955 0-1.654-1.346-3-3-3-1.476 0-2.705 1.07-2.954 2.475l-5.459 4.246c-2.399-1.709-5.157-2.869-8.056-3.388l-.403-4.843c.565-.706.872-1.574.872-2.49 0-2.206-1.794-4-4-4s-4 1.794-4 4c0 .916.307 1.784.872 2.49l-.403 4.843c-2.898.519-5.656 1.678-8.056 3.388l-5.459-4.246c-.249-1.405-1.478-2.475-2.954-2.475-1.654 0-3 1.346-3 3 0 1.475 1.07 2.705 2.476 2.954l4.245 5.458c-1.709 2.399-2.868 5.157-3.388 8.056l-4.843.405c-.705-.566-1.573-.873-2.49-.873-2.206 0-4 1.794-4 4s1.794 4 4 4c.917 0 1.785-.307 2.49-.873l4.843.404c.52 2.899 1.679 5.657 3.388 8.056l-4.245 5.458c-1.406.25-2.476 1.48-2.476 2.955 0 1.654 1.346 3 3 3 1.476 0 2.705-1.07 2.954-2.475l5.459-4.246c2.399 1.709 5.157 2.869 8.056 3.388l.403 4.843c-.565.706-.872 1.574-.872 2.49 0 2.206 1.794 4 4 4s4-1.794 4-4c0-.916-.307-1.784-.872-2.49l.403-4.843c2.898-.519 5.656-1.678 8.056-3.388l5.459 4.246c.249 1.405 1.478 2.475 2.954 2.475 1.654 0 3-1.346 3-3 0-1.475-1.07-2.705-2.476-2.954l-4.245-5.458c1.709-2.399 2.868-5.157 3.388-8.056l4.843-.404c.705.565 1.573.872 2.49.872 2.206 0 4-1.794 4-4s-1.794-4-4-4zm0 6c-.54 0-1.047-.214-1.427-.604-.209-.213-.504-.325-.799-.298l-6.056.504c-.467.039-.844.396-.907.86-.427 3.102-1.664 6.05-3.579 8.526-.279.361-.278.865.002 1.226l4.977 6.398c.189.245.48.388.789.388.552 0 1 .449 1 1s-.448 1-1 1-1-.449-1-1c0-.309-.143-.6-.386-.79l-6.398-4.977c-.36-.28-.865-.28-1.226-.001-2.479 1.916-5.427 3.153-8.526 3.579-.464.063-.822.441-.86.908l-.504 6.055c-.025.297.084.589.297.797.388.382.603.889.603 1.429 0 1.103-.897 2-2 2s-2-.897-2-2c0-.54.215-1.047.604-1.429.213-.208.322-.5.297-.797l-.504-6.055c-.038-.467-.396-.844-.86-.908-3.1-.425-6.048-1.663-8.526-3.579-.18-.139-.396-.209-.611-.209-.217 0-.434.07-.614.21l-6.398 4.977c-.245.19-.388.481-.388.79 0 .551-.448 1-1 1s-1-.449-1-1 .448-1 1-1c.309 0 .6-.143.789-.386l4.977-6.398c.28-.36.281-.864.002-1.226-1.915-2.476-3.152-5.424-3.579-8.526-.063-.464-.44-.821-.907-.86l-6.056-.504c-.295-.026-.59.085-.799.298-.38.388-.887.602-1.427.602-1.103 0-2-.897-2-2s.897-2 2-2c.54 0 1.047.214 1.427.604.209.213.503.323.799.298l6.056-.504c.467-.039.844-.396.907-.86.427-3.102 1.664-6.05 3.579-8.526.279-.361.278-.865-.002-1.226l-4.977-6.398c-.189-.245-.48-.388-.789-.388-.552 0-1-.449-1-1s.448-1 1-1 1 .449 1 1c0 .309.143.6.386.79l6.398 4.977c.36.28.865.28 1.226.001 2.479-1.916 5.427-3.153 8.526-3.579.464-.063.822-.441.86-.908l.504-6.055c.025-.297-.084-.589-.297-.797-.388-.382-.603-.889-.603-1.429 0-1.103.897-2 2-2s2 .897 2 2c0 .54-.215 1.047-.604 1.429-.213.208-.322.5-.297.797l.504 6.055c.038.467.396.844.86.908 3.1.425 6.048 1.663 8.526 3.579.36.279.865.278 1.226-.001l6.398-4.977c.244-.19.387-.481.387-.79 0-.551.448-1 1-1s1 .449 1 1-.448 1-1 1c-.309 0-.6.143-.789.386l-4.977 6.398c-.28.36-.281.864-.002 1.226 1.915 2.476 3.152 5.424 3.579 8.526.063.464.44.821.907.86l6.056.504c.295.025.591-.085.799-.298.38-.388.887-.602 1.427-.602 1.103 0 2 .897 2 2s-.897 2-2 2z"/><path d="m26 31c0-2.206-1.794-4-4-4s-4 1.794-4 4 1.794 4 4 4 4-1.794 4-4zm-4 2c-1.103 0-2-.897-2-2s.897-2 2-2 2 .897 2 2-.897 2-2 2z"/><path d="m36 36c-2.757 0-5 2.243-5 5s2.243 5 5 5 5-2.243 5-5-2.243-5-5-5zm0 8c-1.654 0-3-1.346-3-3s1.346-3 3-3 3 1.346 3 3-1.346 3-3 3z"/><path d="m37 27c1.654 0 3-1.346 3-3s-1.346-3-3-3-3 1.346-3 3 1.346 3 3 3zm0-4c.552 0 1 .449 1 1s-.448 1-1 1-1-.449-1-1 .448-1 1-1z"/><path d="m26 19c-1.103 0-2 .897-2 2v1h2v-1c1.103 0 2-.897 2-2v-1h-2z"/><path d="m26 40c-1.103 0-2 .897-2 2v1h2v-1c1.103 0 2-.897 2-2v-1h-2z"/><path d="m44 31c-1.103 0-2 .897-2 2v1h2v-1c1.103 0 2-.897 2-2v-1h-2z"/></g></g></svg>